<svg xmlns="http://www.w3.org/2000/svg" xmlns:xlink="http://www.w3.org/1999/xlink" width="25" height="22" viewBox="0 0 25 22" version="1.1">
    <!-- Generator: Sketch 64 (93537) - https://sketch.com -->
    <title>Cart_Btn</title>
    <desc>Created with Sketch.</desc>
    <g id="Symbols" stroke="none" stroke-width="1" fill="none" fill-rule="evenodd">
        <g id="Navigation" transform="translate(-1371.000000, -24.000000)">
            <g id="Cart_Btn">
                <g transform="translate(1368.000000, 19.000000)">
                    <rect id="Rectangle" x="0" y="0" width="32" height="32"/>
                    <g id="noun_cart_927424" transform="translate(3.934426, 5.508197)" fill="#6D1F36" fill-rule="nonzero">
                        <path d="M0.786885246,3.68042866e-07 C0.352288525,3.68042866e-07 0,0.352302376 0,0.786885983 C0,1.22146959 0.352288525,1.57377123 0.786885246,1.57377123 L3.29508202,1.57377123 L6,14.3360663 C6.10701645,14.816486 6.42187546,15.2163286 6.81967218,15.213194 L19.9344263,15.213194 C20.3501378,15.2188991 20.7325102,14.8420073 20.7325102,14.4262434 C20.7325102,14.0104794 20.3501378,13.6334827 19.9344263,13.6393581 L7.45901645,13.6393581 L7.12293776,12.0655614 L20.9836053,12.0655614 C21.3359201,12.0629384 21.6687987,11.7946106 21.7458873,11.4508204 L23.5819528,3.58196795 C23.6842742,3.12529385 23.2876578,2.62630631 22.8196709,2.62295156 L5.13114759,2.62295156 L4.70491809,0.622951556 C4.63045251,0.273548278 4.29167218,-0.000366476289 3.93442628,3.68042866e-07 L0.786885246,3.68042866e-07 Z M5.45901645,4.19672205 L21.8278807,4.19672205 L20.3606558,10.4917909 L6.7950689,10.4917909 L5.45901645,4.19672205 Z M9.442623,15.7377188 C8.0033312,15.7377188 6.81967218,16.9213516 6.81967218,18.3606696 C6.81967218,19.7999614 8.0033312,20.9836204 9.442623,20.9836204 C10.8819148,20.9836204 12.0655738,19.7999614 12.0655738,18.3606696 C12.0655738,16.9213778 10.8819148,15.7377188 9.442623,15.7377188 Z M17.3114755,15.7377188 C15.8721837,15.7377188 14.6885246,16.9213516 14.6885246,18.3606696 C14.6885246,19.7999614 15.8721837,20.9836204 17.3114755,20.9836204 C18.7507673,20.9836204 19.9344263,19.7999614 19.9344263,18.3606696 C19.9344263,16.9213778 18.7507673,15.7377188 17.3114755,15.7377188 Z M9.442623,17.3114893 C10.0313968,17.3114893 10.4918033,17.7718958 10.4918033,18.3606696 C10.4918033,18.9494434 10.0313968,19.4098499 9.442623,19.4098499 C8.85390169,19.4098499 8.39344268,18.9494171 8.39344268,18.3606696 C8.39344268,17.771922 8.85390169,17.3114893 9.442623,17.3114893 Z M17.3114755,17.3114893 C17.9002492,17.3114893 18.3606558,17.7718958 18.3606558,18.3606696 C18.3606558,18.9494434 17.9002492,19.4098499 17.3114755,19.4098499 C16.7227542,19.4098499 16.2622951,18.9494171 16.2622951,18.3606696 C16.2622951,17.771922 16.7227542,17.3114893 17.3114755,17.3114893 Z" id="Shape"/>
                    </g>
                </g>
            </g>
        </g>
    </g>
</svg>